<?xml version="1.0" encoding="UTF-8"?><svg id="Layer_1" xmlns="http://www.w3.org/2000/svg" viewBox="0 0 34.73 34.7"><path d="m17.31,34.7C7.77,34.7,0,26.93,0,17.37,0,7.65,7.77,0,17.64,0c9.37,0,17.1,7.88,17.09,17.4-.01,9.58-7.78,17.3-17.42,17.3Zm-.13-9.65V6.4c-.93-.23-1.63-.03-2.23.74-.75.95-1.54,1.88-2.44,2.68-1.41,1.26-.64,2.79-.85,4.2.06.02.12.03.18.05.88-.93,1.76-1.85,2.81-2.96v13.95h2.53Zm5.83,3.26V9.68c-.95-.24-1.64-.01-2.24.75-.69.86-1.53,1.61-2.3,2.42-.13.14-.35.3-.35.45-.03,1.14-.02,2.27-.02,3.41.09.04.17.09.26.13.68-.73,1.35-1.46,2.16-2.33v13.82h2.49Zm-11.34-4.96c.73-.73,1.33-1.31,1.91-1.9.09-.1.17-.26.18-.39.01-1.04,0-2.09,0-3.12-.67.61-1.3,1.19-1.91,1.77-.1.09-.17.25-.18.39-.01,1.03,0,2.05,0,3.25Z"/></svg>